<svg xmlns="http://www.w3.org/2000/svg" version="1.1" xmlns:xlink="http://www.w3.org/1999/xlink" xmlns:svgjs="http://svgjs.com/svgjs" width="1440" height="560" preserveAspectRatio="none" viewBox="0 0 1440 560"><g mask="url(&quot;#SvgjsMask1001&quot;)" fill="none"><rect width="1440" height="560" x="0" y="0" fill="rgba(18, 16, 19, 1)"></rect><path d="M0,442.755C97.264,465.565,203.677,500.515,293.32,456.415C384.522,411.548,441.106,311.506,466.73,213.148C490.523,121.817,445.058,31.298,428.263,-61.575C412.182,-150.502,417.281,-243.639,370.179,-320.762C318.264,-405.765,245.716,-483.538,151.256,-515.131C55.48,-547.164,-48.99,-525.056,-144.753,-492.983C-237.949,-461.769,-329.398,-414.914,-386.599,-334.99C-441.592,-258.152,-443.557,-159.05,-451.154,-64.866C-458.318,23.946,-474.382,119.184,-429.44,196.119C-385.635,271.107,-291.793,293.605,-216.484,336.856C-145.383,377.691,-79.827,424.034,0,442.755" fill="#0f0e10"></path><path d="M1440 1106.364C1567.276 1123.449 1701.599 1203.587 1815.536 1144.345 1929.271 1085.208 1949.6019999999999 933.594 1999.431 815.484 2047.762 700.925 2129.9790000000003 585.987 2102.235 464.78499999999997 2074.766 344.781 1953.051 276.049 1858.034 197.77100000000002 1777.2359999999999 131.20800000000003 1689.6109999999999 80.55000000000001 1591.503 44.028999999999996 1486.669 5.004000000000019 1377.022-51.500999999999976 1269.289-21.389999999999986 1161.261 8.803999999999974 1097.25 114.67099999999999 1026.714 201.88600000000002 958.448 286.294 874.421 369.22900000000004 865.848 477.449 857.411 583.945 937.937 671.843 981.7660000000001 769.268 1025.892 867.3530000000001 1037.476 987.798 1124.112 1051.531 1211.978 1116.1689999999999 1331.89 1091.8519999999999 1440 1106.364" fill="#151216"></path></g><defs><mask id="SvgjsMask1001"><rect width="1440" height="560" fill="#ffffff"></rect></mask></defs></svg>